<svg width="600" height="222" viewBox="0 0 600 222" fill="none" xmlns="http://www.w3.org/2000/svg">
<path d="M57 179.361C140.2 122.961 99.1 21.3606 99.1 21.3606C-18.1 59.6606 7.3 176.961 7.3 176.961C7.3 176.961 13.2 77.7606 99.5 51.3606C99.5 51.2606 111.3 139.361 57 179.361Z" fill="#ADD165"/>
<path d="M83 70.5607C83 70.5607 66.1 147.961 0 204.361C0 204.361 130.9 204.361 257.2 43.5607C257.2 43.5607 174.7 150.761 16 195.961C16 196.061 71.1 147.861 83 70.5607Z" fill="#132864"/>
<path d="M94.3 161.261C94.3 161.261 147.2 130.261 186.5 84.3607L178.5 78.0607C178.5 78.0607 137.4 128.161 94.3 161.261Z" fill="#339ED9"/>
<path d="M141.1 4.26063C146.7 9.76063 145.6 19.9606 138.6 27.1606C131.6 34.3606 121.4 35.6606 115.8 30.2606C110.2 24.7606 111.3 14.5606 118.3 7.36063C125.2 0.260633 135.4 -1.13937 141.1 4.26063Z" fill="#ADD165"/>
<path d="M196.7 47.0606C202.3 49.8606 204.1 57.6606 200.7 64.5606C197.3 71.4606 190 74.8606 184.4 72.1606C178.8 69.4606 177 61.5606 180.4 54.6606C183.8 47.7606 191 44.3606 196.7 47.0606Z" fill="#339ED9"/>
<path d="M258.9 3.16066C266.3 9.06066 266.3 21.2607 258.9 30.3607C251.6 39.4607 239.7 42.0607 232.3 36.1607C224.9 30.2607 224.9 18.0607 232.3 8.96065C239.7 -0.139349 251.6 -2.73934 258.9 3.16066Z" fill="#132864"/>
<path d="M147.9 163.461H144V159.461H147.9V163.461ZM141.2 163.461H137.3V159.461H141.2V163.461ZM144.1 174.561V169.461H140.5C137.7 169.461 136 171.661 136 174.961C136 177.661 137.5 179.961 139.9 179.961C142.5 179.961 144.1 177.561 144.1 174.561ZM154.7 185.761H150.4C147.3 185.761 144.8 183.661 144 180.561C142.8 182.361 141.2 183.161 139.5 183.161C135 183.161 132.2 179.761 132.2 174.861C132.2 169.561 135 166.261 139.5 166.261H148.2V177.561C148.2 180.361 149.5 181.761 152.2 181.761H154.7V185.761Z" fill="#132864"/>
<path d="M163.9 193.561H160V189.561H163.9V193.561ZM169.8 185.761H153.5V181.761H157.3C158.5 181.761 159.3 181.361 159.7 180.561C160 180.061 160.1 179.161 160.1 177.861V169.761H164V177.661C164 179.761 163.7 181.061 163.1 181.761H169.7V185.761H169.8ZM157.3 193.561H153.4V189.561H157.3V193.561Z" fill="#132864"/>
<path d="M178.9 179.461C178.9 183.761 176.9 185.861 173 185.861H168.8V181.861H172.2C173.5 181.861 174.3 181.461 174.7 180.661C174.9 180.261 175 179.361 175 178.161V163.161H179V179.461H178.9Z" fill="#132864"/>
<path d="M193.4 177.961C193.4 175.161 191.9 173.361 189.7 173.361C187.6 173.361 186.2 175.361 186.2 177.761C186.2 180.261 187.7 182.261 189.8 182.261C191.9 182.261 193.4 180.261 193.4 177.961ZM197.5 185.361C197.5 189.561 195 191.661 189.8 191.661V188.561C192.3 188.461 193.5 186.861 193.6 184.061C192.9 185.261 191.6 185.861 189.9 185.861C185.3 185.861 182.3 182.561 182.3 177.861C182.3 173.061 185.4 169.861 189.9 169.861C194.6 169.861 197.5 173.361 197.5 177.961V185.361Z" fill="#132864"/>
<path d="M217.9 163.061V180.261C217.9 183.661 215.5 185.761 211.7 185.761H201.1V181.761H206.5L202.1 165.561H206.3L210.7 181.761C211.8 181.761 212.6 181.561 213.1 180.961C213.8 180.261 214.1 179.161 214.1 177.561V162.961H217.9V163.061ZM207.2 163.861H201.1V162.261H202.5C202.3 161.561 202.2 161.161 202.2 161.061C202.2 159.361 203.4 158.161 204.9 158.161C205.9 158.161 206.6 158.661 207.1 159.761L205.8 160.461C205.7 159.961 205.3 159.661 204.8 159.661C204.1 159.661 203.6 160.361 203.6 160.961C203.6 161.561 203.8 162.061 204.2 162.261H207.1V163.861H207.2Z" fill="#132864"/>
<path d="M225.5 162.961H221.6V185.761H225.5V162.961Z" fill="#132864"/>
<path d="M251.9 163.461H248V159.461H251.9V163.461ZM245.3 163.461H241.4V159.461H245.3V163.461ZM248.2 174.561V169.461H244.6C241.8 169.461 240.1 171.661 240.1 174.961C240.1 177.661 241.6 179.961 244 179.961C246.6 179.961 248.2 177.561 248.2 174.561ZM258.7 185.761H254.4C251.3 185.761 248.8 183.661 248 180.561C246.8 182.361 245.2 183.161 243.5 183.161C239 183.161 236.2 179.761 236.2 174.861C236.2 169.561 239 166.261 243.5 166.261H252.2V177.561C252.2 180.361 253.5 181.761 256.1 181.761H258.6V185.761H258.7Z" fill="#132864"/>
<path d="M268 193.561H264.1V189.561H268V193.561ZM273.9 185.761H257.6V181.761H261.4C262.6 181.761 263.4 181.361 263.8 180.561C264.1 180.061 264.2 179.161 264.2 177.861V169.761H268.1V177.661C268.1 179.761 267.8 181.061 267.2 181.761H273.8V185.761H273.9ZM261.3 193.561H257.4V189.561H261.3V193.561Z" fill="#132864"/>
<path d="M301.3 185.761H272.9V181.761H293.3C293.3 179.561 292.7 177.661 291.5 176.161C290.1 174.361 288 173.461 285.4 173.461C284.5 173.461 283.5 173.661 282.4 174.161C281.1 174.661 280.1 175.461 279.2 176.361C278.8 175.661 278.2 174.561 277.3 173.261C278.4 172.261 279.6 171.361 281.1 170.761C282.7 170.061 284.2 169.761 285.8 169.761C288.2 169.761 290.4 170.361 292.2 171.461C295.4 173.461 297.2 176.861 297.5 181.761H301.2V185.761H301.3Z" fill="#132864"/>
<path d="M326.1 181.761L326.2 180.661C326.2 176.061 324.1 173.261 320.7 173.261C316.7 173.261 312.5 176.961 310.4 181.761H326.1ZM334.4 185.761H299.4V181.761H303.4C305.4 181.761 306.4 180.361 306.4 177.561V171.461H310.4V176.361C313.5 172.061 317.4 169.661 321.2 169.661C327.2 169.661 330.2 173.761 330.3 181.761H334.5V185.761H334.4Z" fill="#132864"/>
<path d="M343.5 179.461C343.5 183.761 341.5 185.861 337.6 185.861H333.4V181.861H336.8C338.1 181.861 338.9 181.461 339.3 180.661C339.5 180.261 339.6 179.361 339.6 178.161V163.161H343.6V179.461H343.5Z" fill="#132864"/>
<path d="M351 162.961H347.1V185.761H351V162.961Z" fill="#132864"/>
<path d="M377.5 163.461H373.6V159.461H377.5V163.461ZM370.8 163.461H366.9V159.461H370.8V163.461ZM373.7 174.561V169.461H370.1C367.3 169.461 365.7 171.661 365.7 174.961C365.7 177.661 367.2 179.961 369.6 179.961C372.1 179.961 373.7 177.561 373.7 174.561ZM384.3 185.761H380C376.9 185.761 374.4 183.661 373.6 180.561C372.4 182.361 370.8 183.161 369.1 183.161C364.6 183.161 361.8 179.761 361.8 174.861C361.8 169.561 364.6 166.261 369.1 166.261H377.8V177.561C377.8 180.361 379.1 181.761 381.8 181.761H384.3V185.761Z" fill="#132864"/>
<path d="M393.4 193.561H389.5V189.561H393.4V193.561ZM393.5 179.461C393.5 183.761 391.5 185.861 387.6 185.861H383.4V181.861H386.7C388 181.861 388.8 181.461 389.2 180.661C389.4 180.261 389.5 179.361 389.5 178.161V169.861H393.5V179.461ZM386.8 193.561H382.9V189.561H386.8V193.561Z" fill="#132864"/>
<path d="M407.6 185.761H403C401.1 185.761 399.6 185.161 398.6 183.961C397.6 182.861 397.2 181.261 397.2 179.361V163.061H401.1V177.861C401.1 179.561 401.5 180.761 402.2 181.261C402.7 181.661 403.8 181.861 405.2 181.861H407.5V185.761H407.6Z" fill="#132864"/>
<path d="M426.1 185.761H406.5V181.761H411.6C411.1 180.561 410.8 179.361 410.8 178.061C410.8 175.661 411.5 173.661 413.1 172.061C414.6 170.361 416.6 169.561 419 169.561C422.1 169.561 424.7 171.261 425.9 174.161L422.5 175.761C421.9 173.961 420.7 173.061 418.8 173.061C417.5 173.061 416.5 173.561 415.8 174.661C415.2 175.561 414.8 176.661 414.8 178.061C414.8 179.661 415.2 180.861 416.1 181.861H426.1V185.761Z" fill="#132864"/>
<path d="M443.6 185.761H437.3C436.7 189.561 433.5 191.661 428.7 191.661V188.261C432 188.261 433.6 186.661 433.6 183.261V169.761H437.6V181.761H443.7V185.761H443.6Z" fill="#132864"/>
<path d="M452.3 179.461C452.3 183.761 450.3 185.861 446.4 185.861H442.2V181.861H445.6C446.9 181.861 447.7 181.461 448.1 180.661C448.3 180.261 448.4 179.361 448.4 178.161V163.161H452.4V179.461H452.3Z" fill="#132864"/>
<path d="M459.9 162.961H456V185.761H459.9V162.961Z" fill="#132864"/>
<path d="M486.3 163.461H482.4V159.461H486.3V163.461ZM479.7 163.461H475.8V159.461H479.7V163.461ZM482.6 174.561V169.461H479C476.3 169.461 474.6 171.661 474.6 174.961C474.6 177.661 476.1 179.961 478.5 179.961C481 179.961 482.6 177.561 482.6 174.561ZM493.1 185.761H488.8C485.7 185.761 483.2 183.661 482.4 180.561C481.2 182.361 479.7 183.161 477.9 183.161C473.4 183.161 470.6 179.761 470.6 174.861C470.6 169.561 473.4 166.261 477.9 166.261H486.6V177.561C486.6 180.361 487.9 181.761 490.6 181.761H493.1V185.761Z" fill="#132864"/>
<path d="M491.9 185.761V181.761H495.5C497.5 181.761 498.5 180.361 498.5 177.561V169.761H502.5V177.461C502.5 179.561 502.3 180.861 501.9 181.561V181.761H505.6C507.6 181.761 508.6 180.461 508.6 177.861V169.761H512.6V177.461C512.6 179.761 512.3 181.161 511.8 181.761H515.7C517.7 181.761 518.7 180.461 518.7 177.861V169.761H522.7V177.361C522.7 179.061 522.4 180.461 521.8 181.761H527.8V185.761H491.9Z" fill="#132864"/>
<path d="M526.7 181.761H529.6C531.6 181.761 532.6 180.361 532.6 177.561V169.761H536.6V177.461C536.6 179.561 536.4 180.861 536 181.561V181.761H539.7C541.7 181.761 542.7 180.461 542.7 177.861V169.761H546.7V177.461C546.7 179.761 546.4 181.161 545.9 181.761H549.7C551.7 181.761 552.7 180.461 552.7 177.861V169.761H556.7V177.361C556.7 182.461 553.9 185.761 549.8 185.761H526.7V181.761Z" fill="#132864"/>
<path d="M571.4 181.761V176.961C571.2 174.861 570 173.361 567.9 173.361C565.6 173.361 564.1 174.961 564.1 177.361C564.1 179.761 565.8 181.761 567.9 181.761H571.4ZM571.2 167.761H563.4V165.561H565.1C565 165.161 564.9 164.761 564.9 164.361C564.9 162.361 566.4 160.861 568.2 160.861C569.6 160.861 570.6 161.561 571.2 162.961L569.2 163.861C569 163.261 568.7 162.961 568.2 162.961C567.5 162.961 567.2 163.461 567.2 164.261C567.2 164.861 567.4 165.361 567.8 165.461H571.2V167.761ZM580.2 185.761H575.4C574.9 189.661 572.3 191.561 567.7 191.561V188.561C569.7 188.561 571.1 187.661 571.6 185.861H567.8C563.5 185.861 560.1 182.261 560.1 177.661C560.1 172.961 563.5 169.861 568 169.861C572.3 169.861 575.3 173.161 575.3 177.761V181.861H580.1V185.761H580.2Z" fill="#132864"/>
<path d="M595.9 180.761C595.9 178.061 594.3 176.061 591.9 176.061C589.7 176.061 588.1 177.961 588.1 180.561C588.1 183.161 589.8 185.261 592.1 185.261C594.3 185.261 595.9 183.461 595.9 180.761ZM599.9 180.761C599.9 185.461 596.7 188.961 592 188.961C589.3 188.961 587.1 187.861 585.6 185.861H579.3V181.861H584.2V181.661C584.2 181.361 584.1 181.061 584.1 180.761C584.1 176.061 587.4 172.661 592.1 172.661C596.7 172.561 599.9 176.161 599.9 180.761Z" fill="#132864"/>
<path d="M136.6 210.361H139.1C140.4 210.361 141.8 209.861 141.8 208.161C141.8 206.261 140 205.961 138.6 205.961H136.7V210.361H136.6ZM132.9 202.561H139.2C142.8 202.561 145.7 203.761 145.7 208.161C145.7 212.461 143 213.761 139.4 213.761H136.6V220.961H132.9V202.561Z" fill="#132864"/>
<path d="M151.8 210.161H154C155.4 210.161 157.2 210.161 157.2 208.061C157.2 206.261 155.7 205.961 154.3 205.961H151.8V210.161ZM148.1 202.561H154.7C158.2 202.561 161.1 203.861 161.1 208.161C161.1 210.761 159.8 212.761 157.4 213.161L161.7 220.961H157.3L153.7 213.561H151.9V220.961H148.1V202.561Z" fill="#132864"/>
<path d="M167.4 202.561H163.6V220.961H167.4V202.561Z" fill="#132864"/>
<path d="M170.8 202.561H176.5L180.4 214.561H180.5L184.4 202.561H190.1V220.961H186.3V206.861L181.8 220.961H178.9L174.6 206.861V220.961H170.8V202.561Z" fill="#132864"/>
<path d="M200.6 207.861L198.5 213.561H202.7L200.6 207.861ZM199.2 202.561H202.3L209.7 220.961H205.5L204 217.061H197.4L196 220.961H191.8L199.2 202.561Z" fill="#132864"/>
<path d="M215.2 210.161H217.4C218.8 210.161 220.6 210.161 220.6 208.061C220.6 206.261 219.1 205.961 217.7 205.961H215.2V210.161ZM211.4 202.561H218C221.5 202.561 224.4 203.861 224.4 208.161C224.4 210.761 223.1 212.761 220.7 213.161L225 220.961H220.5L216.9 213.561H215.1V220.961H211.3V202.561H211.4Z" fill="#132864"/>
<path d="M230.8 213.061L224.4 202.561H229.1L232.7 209.461L236.5 202.561H241L234.6 213.061V220.961H230.8V213.061Z" fill="#132864"/>
<path d="M249.4 202.561H253.1V209.361H260.4V202.561H264.2V220.961H260.4V212.961H253.1V220.961H249.4V202.561Z" fill="#132864"/>
<path d="M267.8 202.561H279.4V206.261H271.6V209.661H279V213.461H271.6V217.161H279.8V220.961H267.8V202.561Z" fill="#132864"/>
<path d="M289.9 207.861L287.8 213.561H292L289.9 207.861ZM288.5 202.561H291.6L299 220.961H294.8L293.3 217.061H286.7L285.3 220.961H281.1L288.5 202.561Z" fill="#132864"/>
<path d="M300.9 202.561H304.6V217.161H311.6V220.961H300.9V202.561Z" fill="#132864"/>
<path d="M314.8 206.161H309.9V202.561H323.4V206.161H318.5V220.961H314.8V206.161Z" fill="#132864"/>
<path d="M325.3 202.561H329.1V209.361H336.3V202.561H340.1V220.961H336.3V212.961H329.1V220.961H325.3V202.561Z" fill="#132864"/>
<path d="M361.9 207.361C361.1 206.361 360.1 205.861 358.7 205.861C355.9 205.861 353.8 208.361 353.8 211.761C353.8 215.161 355.9 217.661 358.6 217.661C360.1 217.661 361.3 216.961 362.1 215.661L365.2 218.161C363.8 220.361 361.4 221.361 359 221.361C353.7 221.361 349.8 217.561 349.8 211.661C349.8 205.761 353.7 201.961 359 201.961C360.9 201.961 363.3 202.661 364.7 204.661L361.9 207.361Z" fill="#132864"/>
<path d="M374.3 207.861L372.2 213.561H376.4L374.3 207.861ZM372.8 202.561H375.9L383.3 220.961H379.1L377.6 217.061H371L369.6 220.961H365.4L372.8 202.561Z" fill="#132864"/>
<path d="M388.8 210.161H391C392.4 210.161 394.2 210.161 394.2 208.061C394.2 206.261 392.7 205.961 391.3 205.961H388.8V210.161ZM385.1 202.561H391.7C395.2 202.561 398.1 203.861 398.1 208.161C398.1 210.761 396.8 212.761 394.4 213.161L398.7 220.961H394.3L390.7 213.561H388.8V220.961H385V202.561H385.1Z" fill="#132864"/>
<path d="M400.8 202.561H412.4V206.261H404.6V209.661H412V213.461H404.6V217.161H412.9V220.961H400.8V202.561Z" fill="#132864"/>
<path d="M434.2 207.361C433.4 206.361 432.4 205.861 431 205.861C428.1 205.861 426.1 208.361 426.1 211.761C426.1 215.161 428.2 217.661 430.9 217.661C432.4 217.661 433.7 216.961 434.4 215.661L437.5 218.161C436.1 220.361 433.7 221.361 431.3 221.361C426 221.361 422.1 217.561 422.1 211.661C422.1 205.761 426 201.961 431.3 201.961C433.2 201.961 435.6 202.661 437.1 204.661L434.2 207.361Z" fill="#132864"/>
<path d="M447.8 217.661C451 217.661 453.1 215.161 453.1 211.761C453.1 208.361 451 205.861 447.8 205.861C444.6 205.861 442.5 208.361 442.5 211.761C442.5 215.161 444.6 217.661 447.8 217.661ZM447.8 202.061C453.1 202.061 457 205.861 457 211.761C457 217.661 453.1 221.461 447.8 221.461C442.5 221.461 438.6 217.661 438.6 211.761C438.6 205.861 442.5 202.061 447.8 202.061Z" fill="#132864"/>
<path d="M463.3 210.161H465.5C466.9 210.161 468.7 210.161 468.7 208.061C468.7 206.261 467.2 205.961 465.8 205.961H463.3V210.161ZM459.6 202.561H466.2C469.7 202.561 472.6 203.861 472.6 208.161C472.6 210.761 471.3 212.761 468.9 213.161L473.2 220.961H468.7L465.1 213.561H463.3V220.961H459.5V202.561H459.6Z" fill="#132864"/>
<path d="M479 210.361H481.5C482.8 210.361 484.2 209.861 484.2 208.161C484.2 206.261 482.4 205.961 481 205.961H479.1V210.361H479ZM475.2 202.561H481.5C485 202.561 488 203.761 488 208.161C488 212.461 485.3 213.761 481.7 213.761H479V220.961H475.2V202.561Z" fill="#132864"/>
<path d="M498.7 217.661C501.9 217.661 504 215.161 504 211.761C504 208.361 501.9 205.861 498.7 205.861C495.5 205.861 493.4 208.361 493.4 211.761C493.4 215.161 495.5 217.661 498.7 217.661ZM498.7 202.061C504 202.061 507.9 205.861 507.9 211.761C507.9 217.661 504 221.461 498.7 221.461C493.4 221.461 489.5 217.661 489.5 211.761C489.5 205.861 493.4 202.061 498.7 202.061Z" fill="#132864"/>
<path d="M514.2 210.161H516.4C517.8 210.161 519.6 210.161 519.6 208.061C519.6 206.261 518.1 205.961 516.7 205.961H514.2V210.161ZM510.5 202.561H517.1C520.6 202.561 523.5 203.861 523.5 208.161C523.5 210.761 522.2 212.761 519.8 213.161L524.1 220.961H519.6L516 213.561H514.1V220.961H510.3V202.561H510.5Z" fill="#132864"/>
<path d="M533.1 207.861L531 213.561H535.2L533.1 207.861ZM531.7 202.561H534.8L542.2 220.961H538L536.5 217.061H529.9L528.5 220.961H524.3L531.7 202.561Z" fill="#132864"/>
<path d="M545 206.161H540.1V202.561H553.6V206.161H548.8V220.961H545V206.161Z" fill="#132864"/>
<path d="M559.3 202.561H555.5V220.961H559.3V202.561Z" fill="#132864"/>
<path d="M571 217.661C574.2 217.661 576.3 215.161 576.3 211.761C576.3 208.361 574.2 205.861 571 205.861C567.8 205.861 565.7 208.361 565.7 211.761C565.7 215.161 567.8 217.661 571 217.661ZM571 202.061C576.3 202.061 580.2 205.861 580.2 211.761C580.2 217.661 576.3 221.461 571 221.461C565.7 221.461 561.8 217.661 561.8 211.761C561.8 205.861 565.6 202.061 571 202.061Z" fill="#132864"/>
<path d="M582.7 202.561H587.8L595.1 215.361V202.561H598.9V220.961H594L586.5 207.861V220.961H582.7V202.561Z" fill="#132864"/>
</svg>
